<?xml version="1.0" encoding="utf-8"?>
<!-- Generator: Adobe Illustrator 22.1.0, SVG Export Plug-In . SVG Version: 6.00 Build 0)  -->
<svg version="1.1" id="Layer_1" xmlns="http://www.w3.org/2000/svg" xmlns:xlink="http://www.w3.org/1999/xlink" x="0px" y="0px"
	 viewBox="0 0 46 44.3" style="enable-background:new 0 0 46 44.3;" xml:space="preserve">
<style type="text/css">
	.st0{fill:#FFFFFF;stroke:#0079FE;stroke-width:1.8586;stroke-miterlimit:10;}
	.st1{fill:#FE0036;}
</style>
<path class="st0" d="M45,20c0,10.5-9.8,19-22,19c-2.1,0-4.1-0.2-6-0.7c0,0-3.8,4.7-10,4.7c3-4.3,3-7.7,3-7.7c-5.5-3.5-9-9-9-15.3
	C1,9.5,10.8,1,23,1C35.2,1,45,9.5,45,20z"/>
<g>
	<path class="st1" d="M14.6,13l6,0v7c-0.2,4.6-2.6,7-6,8.5l0-3.3c1.5-0.9,2.8-2.2,3-5.1l-3,0V13z"/>
</g>
<g>
	<path class="st1" d="M25.7,13l6,0v7c-0.2,4.6-2.6,7-6,8.5l0-3.3c1.5-0.9,2.8-2.2,3-5.1l-3,0V13z"/>
</g>
</svg>
